<?xml version="1.0" standalone="no"?>
<!DOCTYPE svg PUBLIC "-//W3C//DTD SVG 20010904//EN"
 "http://www.w3.org/TR/2001/REC-SVG-20010904/DTD/svg10.dtd">
<svg version="1.0" xmlns="http://www.w3.org/2000/svg"
 width="512.000000pt" height="512.000000pt" viewBox="0 0 512.000000 512.000000"
 preserveAspectRatio="xMidYMid meet">
<metadata>
Created by potrace 1.14, written by Peter Selinger 2001-2017
</metadata>
<g transform="translate(0.000000,512.000000) scale(0.100000,-0.100000)"
fill="#000000" stroke="none">
<path d="M4357 4544 c-1 -1 -36 -5 -77 -8 -442 -34 -931 -225 -1298 -504 -121
-93 -132 -102 -268 -237 -194 -192 -338 -387 -464 -627 -46 -88 -150 -326
-150 -343 0 -2 19 -14 43 -28 23 -14 68 -50 100 -81 31 -31 59 -56 60 -56 2 0
4 6 4 13 1 27 79 220 140 344 191 389 502 727 879 956 328 198 703 311 1097
329 39 2 47 6 48 23 1 24 1 207 0 217 -1 6 -107 7 -114 2z"/>
<path d="M4290 4199 c-30 -4 -82 -11 -115 -14 -33 -4 -63 -9 -66 -11 -3 -2
-21 -6 -40 -9 -19 -3 -42 -8 -51 -11 -9 -3 -25 -7 -35 -9 -222 -49 -526 -187
-733 -333 -171 -121 -351 -290 -465 -436 -16 -21 -35 -44 -40 -50 -29 -31
-141 -208 -189 -298 -87 -165 -203 -475 -183 -494 3 -4 39 5 79 19 40 15 98
31 128 37 l55 11 29 77 c90 240 240 483 405 655 36 37 68 71 71 75 3 4 37 35
75 68 237 206 521 357 811 429 138 35 218 47 378 60 32 2 61 7 64 10 3 3 6 57
6 121 l1 115 -65 -3 c-36 -1 -90 -5 -120 -9z"/>
<path d="M4280 3859 c-25 -3 -63 -9 -85 -12 -66 -10 -246 -58 -315 -84 -101
-39 -246 -105 -295 -136 -50 -30 -197 -128 -216 -144 -247 -199 -423 -417
-550 -681 -43 -90 -83 -191 -77 -196 1 -2 31 -6 64 -10 34 -3 85 -13 113 -22
50 -15 71 -13 71 7 0 30 90 205 158 309 279 423 741 698 1236 736 44 4 83 8
85 10 2 2 4 56 5 119 l1 116 -75 -2 c-41 -2 -95 -6 -120 -10z"/>
<path d="M4408 3535 c-2 -1 -32 -5 -68 -9 -36 -3 -74 -8 -85 -10 -11 -3 -51
-11 -90 -20 -356 -76 -707 -318 -924 -636 -75 -109 -171 -298 -171 -334 0 -6
24 -26 54 -45 30 -18 73 -51 96 -73 24 -21 46 -35 50 -31 3 4 12 26 19 48 26
80 122 262 179 336 120 160 286 303 447 386 149 77 361 137 513 145 48 2 43
-12 45 145 l1 98 -32 1 c-17 1 -33 0 -34 -1z"/>
<path d="M4375 3192 c-16 -2 -61 -10 -100 -18 -38 -8 -81 -17 -95 -20 -27 -6
-164 -59 -195 -76 -169 -94 -222 -133 -330 -243 -94 -95 -179 -218 -234 -337
-64 -139 -92 -248 -62 -248 3 0 28 7 55 15 27 8 79 16 115 17 l67 2 27 71 c31
83 125 228 194 300 149 157 358 266 558 291 68 9 87 13 93 19 3 3 6 57 6 120
l1 116 -35 -3 c-19 -2 -48 -4 -65 -6z"/>
<path d="M1718 2784 c-136 -25 -284 -128 -348 -242 l-24 -42 -33 26 c-95 72
-240 115 -378 110 -324 -11 -595 -285 -595 -602 l0 -60 -57 -18 c-63 -20 -146
-69 -179 -107 -163 -183 -127 -477 74 -605 100 -64 95 -64 838 -64 l671 0 36
53 c50 76 111 131 191 172 39 20 71 41 72 48 1 7 4 37 7 67 16 148 108 318
231 424 224 196 521 236 788 106 l46 -23 56 61 c31 33 79 75 106 92 l50 32
-34 47 c-71 98 -214 190 -351 226 -81 22 -224 25 -310 8 -56 -11 -136 -43
-244 -96 -1 -1 -14 27 -27 61 -89 237 -334 373 -586 326z"/>
<path d="M3438 2174 c-138 -32 -247 -110 -320 -231 l-31 -52 -41 28 c-71 48
-148 84 -214 101 -63 16 -201 13 -274 -5 -115 -30 -250 -110 -317 -189 -14
-15 -31 -34 -38 -41 -27 -28 -93 -163 -108 -223 -9 -35 -17 -94 -18 -132 -1
-68 -1 -69 -32 -74 -54 -11 -149 -63 -193 -107 -23 -23 -57 -72 -75 -108 -30
-61 -32 -72 -32 -171 0 -98 2 -109 33 -173 56 -113 149 -188 265 -213 49 -10
313 -13 1279 -13 1191 0 1218 0 1290 20 92 26 144 48 211 93 140 93 241 241
282 414 13 53 14 233 2 281 -59 236 -223 413 -452 488 -65 21 -101 26 -190 27
-160 2 -229 -15 -351 -85 l-52 -29 -6 34 c-18 93 -108 217 -206 282 -116 78
-279 109 -412 78z"/>
</g>
</svg>
